<svg width="34" height="34" viewBox="0 0 34 34" fill="none" xmlns="http://www.w3.org/2000/svg">
<rect width="34" height="34" rx="3" fill="#1C1C1C"/>
<path d="M31.74 4.68999C31.6909 4.71342 31.6487 4.74916 31.6175 4.79374C27.3875 10.0812 23.1562 15.3687 18.93 20.6562C18.7962 20.7725 18.8987 21.0162 19.0787 20.9875C22.1275 20.9912 25.175 20.9875 28.2237 20.9887C28.3553 20.9956 28.4867 20.9707 28.6067 20.9164C28.7268 20.862 28.832 20.7797 28.9137 20.6762C29.8812 19.4675 30.8512 18.2587 31.8187 17.0475C31.9515 16.8722 32.0156 16.6543 31.9987 16.435C31.9962 12.5887 31.9987 8.74374 31.995 4.89749C32.015 4.75999 31.87 4.64124 31.74 4.68999ZM2.09622 4.70749C1.99997 4.75499 2.00372 4.87249 2.00122 4.96374C2.00372 8.80624 2.00247 12.6512 2.00247 16.495C1.99411 16.7057 2.06451 16.9121 2.19997 17.0737L11.75 29.0112C11.9 29.2012 12.135 29.3237 12.3812 29.32C15.45 29.32 18.5187 29.3237 21.5875 29.32C21.765 29.345 21.865 29.1025 21.7325 28.9887C15.3262 20.97 8.90747 12.9575 2.49997 4.93749C2.39997 4.81999 2.28247 4.59749 2.09747 4.70749H2.09622Z" fill="#1899D6"/>
</svg>
